<?xml version="1.0" encoding="UTF-8" standalone="no"?>
<!DOCTYPE svg PUBLIC "-//W3C//DTD SVG 1.1//EN" "http://www.w3.org/Graphics/SVG/1.1/DTD/svg11.dtd">
<svg width="100%" height="100%" viewBox="0 0 384 512" version="1.1" xmlns="http://www.w3.org/2000/svg" xmlns:xlink="http://www.w3.org/1999/xlink" xml:space="preserve" xmlns:serif="http://www.serif.com/" style="fill-rule:evenodd;clip-rule:evenodd;stroke-linejoin:round;stroke-miterlimit:2;">
    <path d="M192,512C86,512 0,426 0,320C0,228.8 130.2,57.7 166.6,11.7C172.6,4.2 181.5,0 191.1,0L192.9,0C202.5,0 211.4,4.2 217.4,11.7C253.8,57.7 384,228.8 384,320C384,426 298,512 192,512ZM96,336C96,327.2 88.8,320 80,320C71.2,320 64,327.2 64,336C64,397.9 114.1,448 176,448C184.8,448 192,440.8 192,432C192,423.2 184.8,416 176,416C131.8,416 96,380.2 96,336Z" style="fill:rgb(121,209,212);fill-rule:nonzero;stroke:black;stroke-width:0.3px;"/>
</svg>
